<svg xmlns="http://www.w3.org/2000/svg" width="162.339" height="200" viewBox="0 0 162.339 200">
  <path id="apple" d="M42.482,196.143a44.789,44.789,0,0,1-10.361-9.578,128.464,128.464,0,0,1-8.861-12.11A117.141,117.141,0,0,1,8.435,144.173a113.869,113.869,0,0,1-6.188-36.2c0-13.076,2.832-24.486,8.345-34.063a48.141,48.141,0,0,1,17.49-18.173,46.636,46.636,0,0,1,23.653-7,39.055,39.055,0,0,1,9.411,1.249c2.415.666,5.33,1.749,8.911,3.082,4.581,1.749,7.079,2.832,7.912,3.082a19.509,19.509,0,0,0,6.663,1.416A19.933,19.933,0,0,0,90,56.483c1.208-.416,3.5-1.166,6.746-2.582,3.215-1.166,5.763-2.165,7.787-2.915a69.5,69.5,0,0,1,8.745-2.165,41.277,41.277,0,0,1,9.561-.416A56.718,56.718,0,0,1,139,51.9a43.586,43.586,0,0,1,20.463,16.324,40.989,40.989,0,0,0-6.038,4.581,50.991,50.991,0,0,0-10.244,12.534,42.469,42.469,0,0,0-5.364,20.988,42.983,42.983,0,0,0,7,23.819,44.4,44.4,0,0,0,12.776,12.793,32.738,32.738,0,0,0,7,3.748c-1,3.123-2.1,6.163-3.373,9.161A118.175,118.175,0,0,1,150.8,175.089c-3.6,5.247-6.43,9.161-8.578,11.743a46.432,46.432,0,0,1-9.828,9.136A21.878,21.878,0,0,1,120.3,199.6a26.813,26.813,0,0,1-8.612-1.058c-2.415-.791-4.8-1.682-7.129-2.69a57.8,57.8,0,0,0-7.537-2.832,37.638,37.638,0,0,0-9.694-1.224A38.866,38.866,0,0,0,77.67,193a60.02,60.02,0,0,0-7.554,2.707c-3.5,1.457-5.788,2.415-7.121,2.832A37.234,37.234,0,0,1,54.75,200a22.9,22.9,0,0,1-12.376-3.748ZM99.565,42.4A31.017,31.017,0,0,1,83.133,46.03c-.833-5.38,0-10.91,2.249-16.965A45.862,45.862,0,0,1,93.71,15.074,45.046,45.046,0,0,1,107.286,4.58,38.62,38.62,0,0,1,123.027,0a37.86,37.86,0,0,1-2.082,17.24A49.456,49.456,0,0,1,112.616,31.9,42.013,42.013,0,0,1,99.407,42.391Z" transform="translate(-2.247 0.001)" fill="#2d3436"/>
</svg>
