<svg xmlns="http://www.w3.org/2000/svg" width="1920" height="700" viewBox="0 0 1920 700">
  <g id="Sfondo" transform="translate(-8 -1090.601)">
    <path id="Path_3" data-name="Path 3" d="M-26,586.724s293.051-4.48,514.1-4.48,128.9-14.625,460.481-13.59S1894,641.884,1894,641.884v603.037s-614.081,32.78-1044.141,21.205c-265.915-7.157-409.746-21.205-459.039-21.205-167.368,0-416.82,16.413-416.82,16.413Z" transform="translate(34 522)" fill="#00b894"/>
    <path id="Path_2" data-name="Path 2" d="M-14,565.1s281.051,15.608,502.1,15.608,646.881-16.623,978.46-15.608S1906,570.565,1906,570.565v660.266s-261.844-38.8-587.107-40.827-745.371,30.017-912.739,30.017S-14,1204.062-14,1204.062Z" transform="translate(22 557)" fill="#00755e"/>
    <path id="Path_1" data-name="Path 1" d="M12,581.9s84.525-31.431,425.788-33.3,668.22,41.229,1012.43,48.378S1932,571.741,1932,571.741v643.072s-19.471,14.987-426.839,12.944-904.7-50.275-1195.822-44.728S12,1192.119,12,1192.119Z" transform="translate(-4 553)" fill="#00372c"/>
  </g>
</svg>
