<svg xmlns="http://www.w3.org/2000/svg" width="164.759" height="200" viewBox="0 0 164.759 200">
  <path id="linux" d="M88.689,0C87.4,0,86.064.067,84.7.175,49.475,2.95,58.816,40.23,58.283,52.655c-.642,9.108-2.5,16.282-8.758,25.173C42.151,86.585,31.8,100.743,26.894,115.5c-2.316,6.933-3.416,14.032-2.391,20.74a3.532,3.532,0,0,0-.925,1.125c-2.167,2.233-3.741,5.008-5.516,6.991-1.658,1.658-4.041,2.225-6.641,3.333-2.608,1.133-5.483,2.242-7.2,5.675a11.093,11.093,0,0,0-1.1,5.008,23.337,23.337,0,0,0,.458,4.466c.483,3.325.967,6.075.325,8.083-2.067,5.666-2.325,9.549-.875,12.374,1.45,2.783,4.458,3.908,7.824,5.008,6.758,1.667,15.916,1.125,23.123,4.991,7.716,3.891,15.549,5.591,21.8,3.916a14.734,14.734,0,0,0,10.066-7.874c4.891-.025,10.249-2.242,18.832-2.783,5.825-.483,13.116,2.225,21.482,1.658a14.094,14.094,0,0,0,.95,2.783l.025.025a15.646,15.646,0,0,0,15.7,8.924c6.425-.5,13.266-4.466,18.807-10.883,5.258-6.375,14.024-9.033,19.815-12.524,2.9-1.658,5.241-3.908,5.408-7.108.192-3.333-1.658-6.766-5.95-11.474v-.808l-.025-.025c-1.417-1.667-2.083-4.458-2.816-7.716-.708-3.341-1.517-6.55-4.1-8.716h-.025c-.492-.45-1.025-.558-1.567-1.125a2.977,2.977,0,0,0-1.583-.533c3.591-10.649,2.2-21.248-1.442-30.781C144.91,96.5,137.144,86.269,131.228,79.228,124.595,70.853,118.1,62.92,118.22,51.155,118.445,33.223,120.2.05,88.689,0ZM93.1,28.373h.108a7.929,7.929,0,0,1,4.866,1.65,12.747,12.747,0,0,1,3.658,4.441,16.128,16.128,0,0,1,1.383,6.033c0-.167.05-.333.05-.492v.867a.715.715,0,0,1-.033-.175l-.033-.2a15.056,15.056,0,0,1-1.25,5.883,7.938,7.938,0,0,1-1.775,2.791,5.914,5.914,0,0,0-.733-.35,9.268,9.268,0,0,1-2.375-1.108,10.936,10.936,0,0,0-1.825-.55,15.6,15.6,0,0,0,1.517-1.65,9.864,9.864,0,0,0,.733-3.35v-.158a10.09,10.09,0,0,0-.508-3.333,12.1,12.1,0,0,0-1.525-2.783,3.818,3.818,0,0,0-2.225-1.1H93a2.661,2.661,0,0,0-2.183,1.1,6.665,6.665,0,0,0-1.708,2.783,9.836,9.836,0,0,0-.75,3.333v.158a19.833,19.833,0,0,0,.167,2.225c-1.608-.558-3.65-1.125-5.058-1.683a13.619,13.619,0,0,1-.15-1.658V40.88a14.769,14.769,0,0,1,1.25-6.408,9.03,9.03,0,0,1,3.583-4.441,8.21,8.21,0,0,1,4.95-1.658Zm-24.682.492h.3A5.823,5.823,0,0,1,72.04,29.99a11.515,11.515,0,0,1,2.866,3.875,14.4,14.4,0,0,1,1.275,5.558v.033a12.216,12.216,0,0,1-.017,2.217v.667c-.25.058-.467.15-.692.2A22.614,22.614,0,0,0,72.2,44.205a9.041,9.041,0,0,0,.025-2.225v-.125a10.983,10.983,0,0,0-.683-2.775,5.1,5.1,0,0,0-1.383-2.225,2.069,2.069,0,0,0-1.525-.533h-.175a1.95,1.95,0,0,0-1.55,1.1,4.6,4.6,0,0,0-1,2.25,7.865,7.865,0,0,0-.192,2.758v.117a10.44,10.44,0,0,0,.675,2.783,5.107,5.107,0,0,0,1.375,2.233,1.34,1.34,0,0,0,.283.2A9.944,9.944,0,0,0,66.582,48.9a2.537,2.537,0,0,1-1.092.567,21.843,21.843,0,0,1-2.291-3.35,14.766,14.766,0,0,1-1.292-5.558,14.656,14.656,0,0,1,.667-5.566,11.918,11.918,0,0,1,2.358-4.458,4.685,4.685,0,0,1,3.483-1.667ZM79.84,43.08a16.912,16.912,0,0,1,10.124,3.325c2.441,1.667,4.358,2.242,8.774,3.9h.025a9.334,9.334,0,0,1,3.983,3.325V52.538a4.758,4.758,0,0,1,.133,3.916c-1.025,2.591-4.3,5.366-8.866,7.024V63.5c-2.233,1.125-4.175,2.775-6.458,3.875-2.3,1.125-4.9,2.433-8.433,2.225a9.489,9.489,0,0,1-3.733-.558,29.716,29.716,0,0,1-2.683-1.65c-1.625-1.125-3.025-2.766-5.1-3.875V63.47h-.042c-3.333-2.05-5.133-4.266-5.716-5.925-.575-2.233-.042-3.908,1.608-5,1.867-1.125,3.166-2.258,4.025-2.8.867-.617,1.192-.85,1.467-1.092h.017V48.63a15.443,15.443,0,0,1,6.991-5.008,15.324,15.324,0,0,1,3.883-.542Zm23.323,17.857A200.18,200.18,0,0,0,117.629,98.21a87.257,87.257,0,0,1,9.183,25.2,15.783,15.783,0,0,1,4.275.533c5.383-13.924-4.55-28.89-9.074-33.048-1.842-1.675-1.933-2.791-1.025-2.791,4.908,4.45,11.374,13.1,13.716,22.973a29.391,29.391,0,0,1,.175,13.916,5.948,5.948,0,0,0,1.708.558c8.6,4.45,11.774,7.816,10.249,12.807V138c-.508-.025-1,0-1.508,0H145.2c1.258-3.891-1.517-6.874-8.874-10.2-7.624-3.333-13.716-2.8-14.757,3.875a9.646,9.646,0,0,0-.142,1.125,11.021,11.021,0,0,1-1.742.533c-3.583,2.233-5.516,5.575-6.608,9.891-1.083,4.441-1.417,9.633-1.708,15.574v.025c-.175,2.783-1.425,6.983-2.658,11.258-12.5,8.933-29.831,12.816-44.572,2.783a22.037,22.037,0,0,0-3.35-4.441,12.082,12.082,0,0,0-2.292-2.783,13.476,13.476,0,0,0,3.875-.558,5.122,5.122,0,0,0,2.616-2.783c.9-2.225,0-5.808-2.875-9.691s-7.758-8.291-14.9-12.674c-5.25-3.325-8.216-7.249-9.583-11.633a26.09,26.09,0,0,1-.125-13.707c2.042-8.916,7.274-17.582,10.616-23.023.892-.542.308,1.125-3.4,8.116-3.3,6.258-9.508,20.807-1.017,32.114A67.691,67.691,0,0,1,49.1,107.834c4.7-10.649,14.524-29.2,15.3-43.9.4.3,1.808,1.125,2.408,1.683,1.817,1.108,3.166,2.775,4.916,3.875a9.923,9.923,0,0,0,7.3,2.791c.325.025.625.05.925.05a17.875,17.875,0,0,0,8.3-2.233c2.416-1.117,4.341-2.783,6.166-3.333h.042a16.1,16.1,0,0,0,8.708-5.833Zm18.215,74.645c.308,5.008,2.858,10.374,7.349,11.474,4.9,1.117,11.949-2.775,14.924-6.375l1.758-.075c2.625-.067,4.808.083,7.058,2.225l.025.025c1.733,1.658,2.541,4.425,3.258,7.3.708,3.341,1.283,6.5,3.408,8.883,4.05,4.391,5.375,7.549,5.3,9.5l.025-.05v.15l-.025-.1c-.125,2.183-1.542,3.3-4.15,4.958-5.25,3.341-14.549,5.933-20.474,13.082-5.15,6.141-11.424,9.491-16.965,9.924s-10.308-1.667-13.116-7.483l-.042-.025c-1.75-3.341-1-8.541.467-14.082,1.467-5.566,3.566-11.208,3.858-15.816.308-5.95.633-11.124,1.625-15.116,1-3.875,2.566-6.641,5.341-8.2l.375-.183Zm-90.119.408h.083a7.636,7.636,0,0,1,1.308.117c3.133.458,5.883,2.775,8.524,6.266l7.583,13.866.025.025c2.025,4.441,6.283,8.866,9.908,13.649,3.616,4.983,6.416,9.424,6.075,13.082v.05c-.475,6.2-3.991,9.566-9.374,10.783-5.375,1.125-12.666.017-19.957-3.866-8.066-4.466-17.649-3.908-23.807-5.016C8.553,184.4,6.537,183.27,5.6,181.6s-.942-5.008,1.025-10.249v-.025l.017-.025c.975-2.783.25-6.275-.225-9.324-.458-3.341-.692-5.908.358-7.833,1.333-2.783,3.3-3.325,5.741-4.441,2.458-1.125,5.341-1.683,7.633-3.908h.017v-.025c2.133-2.233,3.708-5.008,5.566-6.983,1.583-1.675,3.166-2.8,5.525-2.8ZM90.914,60.379c-3.625,1.675-7.874,4.458-12.4,4.458s-8.083-2.225-10.658-3.883c-1.292-1.117-2.333-2.233-3.116-2.791-1.367-1.117-1.2-2.783-.617-2.783.908.133,1.075,1.125,1.658,1.675.8.55,1.792,1.658,3.008,2.775,2.425,1.667,5.666,3.891,9.716,3.891s8.774-2.225,11.649-3.883c1.625-1.125,3.708-2.783,5.4-3.891,1.3-1.142,1.242-2.233,2.325-2.233,1.075.133.283,1.117-1.225,2.775a67.477,67.477,0,0,1-5.75,3.9v-.008ZM81.9,47.18V47c-.05-.158.108-.35.242-.417a2.656,2.656,0,0,1,2.167.033c.525,0,1.333.558,1.25,1.125-.05.408-.708.55-1.125.55-.458,0-.767-.358-1.175-.567-.433-.15-1.217-.067-1.358-.542Zm-4.591,0c-.167.483-.942.408-1.383.55-.392.208-.717.567-1.158.567-.425,0-1.092-.158-1.142-.567-.075-.55.733-1.108,1.25-1.108a2.671,2.671,0,0,1,2.158-.042.39.39,0,0,1,.25.417v.175h.025Z" transform="translate(-2.113)" fill="#2d3436"/>
</svg>
